<?xml version="1.0" standalone="no"?>
<!DOCTYPE svg PUBLIC "-//W3C//DTD SVG 20010904//EN"
 "http://www.w3.org/TR/2001/REC-SVG-20010904/DTD/svg10.dtd">
<svg version="1.0" xmlns="http://www.w3.org/2000/svg"
 width="225.000000pt" height="225.000000pt" viewBox="0 0 225.000000 225.000000"
 preserveAspectRatio="xMidYMid meet">
<metadata>
Created by potrace 1.14, written by Peter Selinger 2001-2017
</metadata>
<g transform="translate(0.000000,225.000000) scale(0.100000,-0.100000)"
fill="#000000" stroke="none">
<path d="M1060 1949 c-6 -11 -11 -44 -10 -72 3 -100 8 -93 -67 -91 -38 0 -78
-3 -89 -7 -28 -10 -36 -42 -17 -68 12 -18 25 -21 94 -21 l79 0 0 -88 0 -88
-215 -124 c-127 -73 -216 -130 -216 -139 -1 -9 -2 -51 -3 -94 l-1 -79 -139
-83 c-76 -46 -146 -91 -156 -100 -16 -14 -17 -40 -18 -280 0 -200 3 -269 13
-282 12 -16 39 -18 341 -18 283 0 330 2 347 15 18 15 19 31 19 224 1 200 2
209 23 234 27 32 79 33 109 2 20 -19 21 -32 22 -219 1 -218 5 -247 31 -253 10
-2 163 -4 340 -3 249 0 325 3 335 13 10 10 13 77 15 281 2 315 21 271 -162
379 -66 40 -126 76 -134 81 -11 7 -15 34 -16 100 -1 74 -5 94 -19 104 -9 6
-107 64 -216 127 l-200 114 0 88 0 88 79 0 c51 0 82 4 88 13 19 23 22 45 8 63
-10 15 -27 18 -94 18 l-81 1 0 73 c0 40 -5 82 -10 93 -15 27 -66 26 -80 -2z
m235 -628 l190 -109 3 -401 2 -401 -109 0 -109 0 0 180 c0 164 -2 183 -22 225
-59 123 -231 126 -298 6 -23 -40 -24 -51 -23 -226 l1 -185 -110 0 -110 0 0
399 0 399 50 31 c28 17 52 31 55 31 2 0 39 20 81 45 41 25 77 45 79 45 2 0 30
16 62 35 32 19 60 35 63 35 3 -1 91 -50 195 -109z m-680 -633 l0 -273 -108 -3
c-105 -3 -107 -2 -108 20 -1 29 -1 344 0 379 1 23 16 36 104 88 56 33 104 61
107 61 3 0 5 -123 5 -272z m1082 210 c57 -34 103 -67 104 -72 0 -6 1 -102 2
-214 l2 -202 -110 0 -110 0 0 275 c0 151 2 275 5 275 2 0 51 -28 107 -62z"/>
</g>
</svg>
